<svg id="youtube-line_1_" data-name="youtube-line (1)" xmlns="http://www.w3.org/2000/svg" width="24" height="24" viewBox="0 0 24 24">
  <defs>
    <style>
      .cls-1 {
        fill: none;
      }

      .cls-2 {
        fill: #f80000;
      }
    </style>
  </defs>
  <path id="Path_301" data-name="Path 301" class="cls-1" d="M0,0H24V24H0Z"/>
  <path id="Path_302" data-name="Path 302" class="cls-2" d="M19.606,6.995a.812.812,0,0,0-.539-.592A38.578,38.578,0,0,0,12,6a38.653,38.653,0,0,0-7.069.4.814.814,0,0,0-.537.592A24.962,24.962,0,0,0,4,12a25,25,0,0,0,.394,5.006.81.81,0,0,0,.538.59A38.458,38.458,0,0,0,12,18a38.643,38.643,0,0,0,7.069-.4.814.814,0,0,0,.537-.592A25,25,0,0,0,20,12,25.01,25.01,0,0,0,19.606,6.995Zm1.937-.5A31.058,31.058,0,0,1,22,12a31.058,31.058,0,0,1-.457,5.5A2.811,2.811,0,0,1,19.6,19.524C17.9,20,12,20,12,20s-5.893,0-7.605-.476A2.811,2.811,0,0,1,2.457,17.5,31.058,31.058,0,0,1,2,12a31.058,31.058,0,0,1,.457-5.5A2.811,2.811,0,0,1,4.395,4.476C6.107,4,12,4,12,4s5.9,0,7.6.476A2.811,2.811,0,0,1,21.543,6.5ZM10,15.5v-7L16,12Z"/>
</svg>
