<svg id="iconfinder_Linkedin_4745729" xmlns="http://www.w3.org/2000/svg" width="40" height="40" viewBox="0 0 40 40">
  <defs>
    <style>
      .cls-1 {
        fill: #007ebb;
      }

      .cls-1, .cls-2 {
        fill-rule: evenodd;
      }

      .cls-2 {
        fill: #fff;
      }
    </style>
  </defs>
  <path id="Path_323" data-name="Path 323" class="cls-1" d="M4.444,40H35.556A4.444,4.444,0,0,0,40,35.556V4.444A4.444,4.444,0,0,0,35.556,0H4.444A4.444,4.444,0,0,0,0,4.444V35.556A4.444,4.444,0,0,0,4.444,40Z"/>
  <path id="Path_324" data-name="Path 324" class="cls-2" d="M38.889,38.889H32.953V28.779c0-2.772-1.053-4.321-3.247-4.321-2.387,0-3.634,1.612-3.634,4.321v10.11h-5.72V19.63h5.72v2.594a6.719,6.719,0,0,1,5.807-3.183c4.085,0,7.01,2.495,7.01,7.654ZM13.527,17.108a3.554,3.554,0,1,1,3.527-3.554A3.541,3.541,0,0,1,13.527,17.108ZM10.574,38.889h5.965V19.63H10.574Z" transform="translate(-4.444 -4.444)"/>
</svg>
