<svg id="iconfinder_Email_4745721" xmlns="http://www.w3.org/2000/svg" width="40" height="40" viewBox="0 0 40 40">
  <defs>
    <style>
      .cls-1, .cls-2 {
        fill-rule: evenodd;
      }

      .cls-2 {
        fill: #fff;
      }
    </style>
  </defs>
  <path id="Path_319" data-name="Path 319" class="cls-1" d="M4.444,40H35.556A4.444,4.444,0,0,0,40,35.556V4.444A4.444,4.444,0,0,0,35.556,0H4.444A4.444,4.444,0,0,0,0,4.444V35.556A4.444,4.444,0,0,0,4.444,40Z"/>
  <path id="Path_320" data-name="Path 320" class="cls-2" d="M18,25.2V36.526a1.076,1.076,0,0,0,1.072,1.115H36.747a1.08,1.08,0,0,0,1.072-1.115V25.2A1.088,1.088,0,0,0,36.747,24H19.072A1.08,1.08,0,0,0,18,25.2m1.63.986a.394.394,0,0,1,.429-.429c.163,0,6.586,4.07,6.975,4.308l1.005.625c.319-.214.639-.4.969-.617.674-.431,6.673-4.316,6.838-4.316a.394.394,0,0,1,.429.429c0,.289-.557.576-.919.8-2.278,1.388-4.555,2.9-6.811,4.342-.132.089-.386.279-.577.25-.213-.033-6.748-4.232-7.937-4.931-.179-.105-.4-.2-.4-.459" transform="translate(-8 -10.667)"/>
</svg>
