<svg id="iconfinder_Messenger_4745733" xmlns="http://www.w3.org/2000/svg" width="40" height="40" viewBox="0 0 40 40">
  <defs>
    <style>
      .cls-1 {
        fill: #007fff;
      }

      .cls-1, .cls-2 {
        fill-rule: evenodd;
      }

      .cls-2 {
        fill: #fff;
      }
    </style>
  </defs>
  <path id="Path_321" data-name="Path 321" class="cls-1" d="M4.444,40H35.556A4.444,4.444,0,0,0,40,35.556V4.444A4.444,4.444,0,0,0,35.556,0H4.444A4.444,4.444,0,0,0,0,4.444V35.556A4.444,4.444,0,0,0,4.444,40Z"/>
  <path id="Path_322" data-name="Path 322" class="cls-2" d="M25.333,12C17.97,12,12,17.527,12,24.346a12,12,0,0,0,4.969,9.614v4.707l4.54-2.492a14.325,14.325,0,0,0,3.824.516c7.364,0,13.333-5.527,13.333-12.346S32.7,12,25.333,12Zm1.325,16.626L23.263,25l-6.625,3.621,7.288-7.737L27.4,24.51l6.542-3.621-7.288,7.737Z" transform="translate(-5.333 -5.333)"/>
</svg>
