<svg xmlns="http://www.w3.org/2000/svg" width="175" height="39" viewBox="0 0 175 39">
  <defs>
    <style>
      .cls-1 {
        fill: none;
      }

      .cls-2 {
        fill: #fff;
      }

      .cls-3 {
        fill: #0d3ece;
      }
    </style>
  </defs>
  <g id="logo" transform="translate(-164 -77)">
    <rect id="Rectangle_139" data-name="Rectangle 139" class="cls-1" width="175" height="39" transform="translate(164 77)"/>
    <path id="Path_283" data-name="Path 283" class="cls-2" d="M21.378-26.334v5.88H14.2V0H7.686V-20.454H.5v-5.88Zm16.716,20.2v5a10.671,10.671,0,0,1-3.4,1.092,26.562,26.562,0,0,1-5.04.462q-5.04,0-7.266-2.541T20.16-10.374q0-5.586,2.352-8.19t7.434-2.6q4.956,0,6.993,1.953t2.037,6.909q0,1.344-.042,2.142t-.168,1.848H26.5a2.935,2.935,0,0,0,.924,2.394,5.608,5.608,0,0,0,3.234.672,31.913,31.913,0,0,0,4.116-.273A25.339,25.339,0,0,0,38.094-6.132Zm-8.148-9.66a3.982,3.982,0,0,0-2.73.693A3.811,3.811,0,0,0,26.5-12.39h6.762v-.924a2.494,2.494,0,0,0-.693-1.974A4.658,4.658,0,0,0,29.946-15.792Zm20.37-.042a6.745,6.745,0,0,0-2.373.273,1.21,1.21,0,0,0-.609,1.239.823.823,0,0,0,.231.609,1.033,1.033,0,0,0,.651.273l5,.672a5.084,5.084,0,0,1,3.423,1.575,6.3,6.3,0,0,1,.987,3.927q0,4.032-1.806,5.859T49.518.42Q47.04.42,45.045.231a24.376,24.376,0,0,1-3.381-.525v-5.46a23.191,23.191,0,0,0,2.919.441,37.759,37.759,0,0,0,3.8.189,5.142,5.142,0,0,0,2.331-.357,1.447,1.447,0,0,0,.609-1.365.812.812,0,0,0-.21-.567.854.854,0,0,0-.546-.273L45.4-8.358a4.659,4.659,0,0,1-3.3-1.659,6.679,6.679,0,0,1-1.029-4.053A6.4,6.4,0,0,1,43.3-19.383q2.226-1.785,6.594-1.785,1.722,0,3.192.084t3.108.336v5.25a25.682,25.682,0,0,0-2.6-.252Q52.038-15.834,50.316-15.834Zm11,.336H58.884v-5.25H61.53l.8-4.83H67.62v4.83H73.5v5.25H67.62v8.064a1.754,1.754,0,0,0,.609,1.575,4.905,4.905,0,0,0,2.415.4A14.158,14.158,0,0,0,72.2-5.565q.924-.1,1.554-.231V-.42a10.606,10.606,0,0,1-2.079.567,13.29,13.29,0,0,1-2.5.273q-4.2,0-6.027-1.785T61.32-7.182Zm26.46,4.7L94.122,0H87.234L83.916-6.426,80.6,0h-6.51l6.384-10.794-6.3-9.954h7.35l2.94,5.838,3.066-5.838h6.51ZM95.634-14.7v-4.914a10.671,10.671,0,0,1,3.4-1.092,26.562,26.562,0,0,1,5.04-.462q5.04,0,7.266,2.541t2.226,8.253q0,5.586-2.352,8.19T103.782.42q-4.956,0-6.993-2T94.752-8.526q0-1.344.042-2.142t.168-1.848h12.264a2.935,2.935,0,0,0-.924-2.394,5.608,5.608,0,0,0-3.234-.672,31.913,31.913,0,0,0-4.116.273A25.339,25.339,0,0,0,95.634-14.7Zm8.148,9.66a3.982,3.982,0,0,0,2.73-.693,3.811,3.811,0,0,0,.714-2.709h-6.762v.924a2.494,2.494,0,0,0,.693,1.974A4.658,4.658,0,0,0,103.782-5.04Zm24.906-16.128q4.158,0,5.88,2.415t1.722,8.211q0,5.754-2.31,8.358T126.5.42A48.771,48.771,0,0,1,120.96.126a26.6,26.6,0,0,1-4.536-.882V-27.93h6.3v8.274a15.12,15.12,0,0,1,2.961-1.113A11.894,11.894,0,0,1,128.688-21.168Zm1.3,10.626q0-3.066-.63-4.011t-2.94-.945a10.9,10.9,0,0,0-1.911.168,11.477,11.477,0,0,0-1.785.462v9.2a12.251,12.251,0,0,0,1.428.189q.8.063,1.89.063,2.52,0,3.234-.945T129.99-10.542Zm9.324-4.158v-4.914a10.671,10.671,0,0,1,3.4-1.092,26.562,26.562,0,0,1,5.04-.462q5.04,0,7.266,2.541t2.226,8.253q0,5.586-2.352,8.19T147.462.42q-4.956,0-6.993-2t-2.037-6.951q0-1.344.042-2.142t.168-1.848h12.264a2.935,2.935,0,0,0-.924-2.394,5.608,5.608,0,0,0-3.234-.672,31.913,31.913,0,0,0-4.116.273A25.339,25.339,0,0,0,139.314-14.7Zm8.148,9.66a3.982,3.982,0,0,0,2.73-.693,3.811,3.811,0,0,0,.714-2.709h-6.762v.924a2.494,2.494,0,0,0,.693,1.974A4.658,4.658,0,0,0,147.462-5.04ZM166.4,0h-6.3V-20.748h5.88l.21,1.6h.084a13.513,13.513,0,0,1,3.087-1.407,10.121,10.121,0,0,1,2.961-.483h.336v6.09a4.839,4.839,0,0,0-.819-.1q-.441-.021-1.113-.021a17.325,17.325,0,0,0-2.31.147,11.872,11.872,0,0,0-2.016.441Z" transform="translate(165 114)"/>
    <g id="Group_468" data-name="Group 468" transform="translate(0 2)">
      <rect id="Rectangle_137" data-name="Rectangle 137" class="cls-2" width="48" height="13" rx="6.5" transform="translate(290 75)"/>
      <path id="Path_284" data-name="Path 284" class="cls-3" d="M2.36-1.149H.6v-5.79H2.126l.07.609h.035a2.284,2.284,0,0,1,.815-.557,2.946,2.946,0,0,1,1.061-.17,2.079,2.079,0,0,1,1.488.481,1.87,1.87,0,0,1,.5,1.418v4.008H4.341V-4.923a.459.459,0,0,0-.217-.41,1.182,1.182,0,0,0-.639-.141,2.6,2.6,0,0,0-.609.07,1.917,1.917,0,0,0-.516.2ZM11.877-2.86v1.395a2.978,2.978,0,0,1-.949.3,7.412,7.412,0,0,1-1.406.129,2.569,2.569,0,0,1-2.028-.709,3.463,3.463,0,0,1-.621-2.3,3.341,3.341,0,0,1,.656-2.285A2.666,2.666,0,0,1,9.6-7.056a2.788,2.788,0,0,1,1.951.545,2.619,2.619,0,0,1,.568,1.928q0,.375-.012.6t-.047.516H8.642A.819.819,0,0,0,8.9-2.8a1.565,1.565,0,0,0,.9.188,8.9,8.9,0,0,0,1.149-.076A7.071,7.071,0,0,0,11.877-2.86ZM9.6-5.556a1.111,1.111,0,0,0-.762.193,1.063,1.063,0,0,0-.2.756h1.887v-.258a.7.7,0,0,0-.193-.551A1.3,1.3,0,0,0,9.6-5.556ZM19.1-6.939h1.922l-1.547,5.79H17.409l-.8-3.305-.68,3.305H13.916l-1.559-5.79h1.934l.68,4.2.9-4.2H17.5l.914,4.2ZM23.82-5.568a1.882,1.882,0,0,0-.662.076.338.338,0,0,0-.17.346.23.23,0,0,0,.064.17.288.288,0,0,0,.182.076l1.395.188a1.419,1.419,0,0,1,.955.44,1.757,1.757,0,0,1,.275,1.1,2.257,2.257,0,0,1-.5,1.635,2.43,2.43,0,0,1-1.758.51q-.692,0-1.248-.053a6.8,6.8,0,0,1-.943-.147V-2.755a6.471,6.471,0,0,0,.815.123,10.537,10.537,0,0,0,1.061.053,1.435,1.435,0,0,0,.65-.1.4.4,0,0,0,.17-.381.227.227,0,0,0-.059-.158.238.238,0,0,0-.152-.076l-1.442-.188a1.3,1.3,0,0,1-.92-.463,1.864,1.864,0,0,1-.287-1.131,1.787,1.787,0,0,1,.621-1.483,2.9,2.9,0,0,1,1.84-.5q.481,0,.891.023t.867.094v1.465a7.167,7.167,0,0,0-.727-.07Q24.3-5.568,23.82-5.568Z" transform="translate(301 85.172)"/>
    </g>
  </g>
</svg>
