<svg id="iconfinder_Tumblr_4700652" xmlns="http://www.w3.org/2000/svg" width="40" height="40" viewBox="0 0 40 40">
  <defs>
    <style>
      .cls-1 {
        fill: #34455d;
      }

      .cls-1, .cls-2 {
        fill-rule: evenodd;
      }

      .cls-2 {
        fill: #fff;
      }
    </style>
  </defs>
  <path id="Path_313" data-name="Path 313" class="cls-1" d="M4.444,40H35.556A4.444,4.444,0,0,0,40,35.556V4.444A4.444,4.444,0,0,0,35.556,0H4.444A4.444,4.444,0,0,0,0,4.444V35.556A4.444,4.444,0,0,0,4.444,40Z"/>
  <path id="Path_314" data-name="Path 314" class="cls-2" d="M36.745,33.3a6.035,6.035,0,0,1-2.105.46c-2.09.057-2.5-1.5-2.512-2.628v-8.3h5.241V18.793H32.146V12H28.324a.208.208,0,0,0-.188.2A8.157,8.157,0,0,1,23,19.386v3.444h2.642v8.713c0,2.983,2.154,7.222,7.839,7.122C35.4,38.631,37.53,37.811,38,37.1l-1.255-3.8" transform="translate(-10.222 -5.333)"/>
</svg>
