<svg id="iconfinder_Twitter_4700653" xmlns="http://www.w3.org/2000/svg" width="40" height="40" viewBox="0 0 40 40">
  <defs>
    <style>
      .cls-1 {
        fill: #4dc8f1;
      }

      .cls-1, .cls-2 {
        fill-rule: evenodd;
      }

      .cls-2 {
        fill: #fff;
      }
    </style>
  </defs>
  <path id="Path_309" data-name="Path 309" class="cls-1" d="M4.444,40H35.556A4.444,4.444,0,0,0,40,35.556V4.444A4.444,4.444,0,0,0,35.556,0H4.444A4.444,4.444,0,0,0,0,4.444V35.556A4.444,4.444,0,0,0,4.444,40Z"/>
  <path id="Path_310" data-name="Path 310" class="cls-2" d="M35.937,21.4A15.559,15.559,0,0,1,12,35.213a11,11,0,0,0,8.1-2.266,5.475,5.475,0,0,1-5.11-3.8,5.486,5.486,0,0,0,2.47-.093,5.478,5.478,0,0,1-4.388-5.434,5.443,5.443,0,0,0,2.479.683A5.476,5.476,0,0,1,13.857,17a15.53,15.53,0,0,0,11.276,5.717,5.475,5.475,0,0,1,9.323-4.991A10.94,10.94,0,0,0,37.93,16.4a5.482,5.482,0,0,1-2.405,3.027,10.927,10.927,0,0,0,3.142-.861,11.107,11.107,0,0,1-2.73,2.832" transform="translate(-5.333 -7.111)"/>
</svg>
