<svg id="iconfinder_VK_4700657" xmlns="http://www.w3.org/2000/svg" width="40" height="40" viewBox="0 0 40 40">
  <defs>
    <style>
      .cls-1 {
        fill: #3e6fa1;
      }

      .cls-1, .cls-2 {
        fill-rule: evenodd;
      }

      .cls-2 {
        fill: #fff;
      }
    </style>
  </defs>
  <path id="Path_315" data-name="Path 315" class="cls-1" d="M4.444,40H35.556A4.444,4.444,0,0,0,40,35.556V4.444A4.444,4.444,0,0,0,35.556,0H4.444A4.444,4.444,0,0,0,0,4.444V35.556A4.444,4.444,0,0,0,4.444,40Z"/>
  <path id="Path_316" data-name="Path 316" class="cls-2" d="M29.6,36.219c.052-.794.41-2.03,1.3-1.356a12.707,12.707,0,0,1,1.455,1.519,2.53,2.53,0,0,0,2.094.921,17.31,17.31,0,0,0,2.888-.127c1.414-.513-1.091-2.857-1.7-3.381-.257-.221-.546-.535-.766-.768a.813.813,0,0,1-.187-1.033l.948-1.333c.281-.306,1.319-1.791,1.57-2.2.361-.586,1.1-1.737.147-1.922a26.64,26.64,0,0,0-2.946,0c-1.308.008-1.042-.136-1.687,1.354-.43.991-1.756,3.326-2.459,3.593-1.3.494-.284-4.235-.834-5.053-.333-.5-1.879-.434-2.6-.425-.84.01-2,.055-2.246.748.075.064-.007.021.138.08a2.7,2.7,0,0,1,.445.147,1.076,1.076,0,0,1,.383.361,7.319,7.319,0,0,1,.021,3.95c-.614,1.209-2.406-2.188-2.713-2.793-.439-.864-.611-1.7-1.108-1.919a17.3,17.3,0,0,0-2.95-.059c-.5.008-.936.087-.745.683.1.3.325.723.463,1.025a33.626,33.626,0,0,0,3.354,5.714,7.478,7.478,0,0,0,5.752,3.326c1.776.014,1.91.093,1.985-1.051" transform="translate(-8 -11.556)"/>
</svg>
