<svg id="iconfinder_Whatsapp_4700658" xmlns="http://www.w3.org/2000/svg" width="40" height="40" viewBox="0 0 40 40">
  <defs>
    <style>
      .cls-1 {
        fill: #01e675;
      }

      .cls-1, .cls-2 {
        fill-rule: evenodd;
      }

      .cls-2 {
        fill: #fff;
      }
    </style>
  </defs>
  <path id="Path_311" data-name="Path 311" class="cls-1" d="M4.444,40H35.556A4.444,4.444,0,0,0,40,35.556V4.444A4.444,4.444,0,0,0,35.556,0H4.444A4.444,4.444,0,0,0,0,4.444V35.556A4.444,4.444,0,0,0,4.444,40Z"/>
  <path id="Path_312" data-name="Path 312" class="cls-2" d="M25.329,12h.008A13.333,13.333,0,1,1,18,36.464L12.878,38.1l1.661-4.954A13.324,13.324,0,0,1,25.329,12Zm-3.722,6.773c-.259-.619-.455-.643-.846-.659-.133-.008-.282-.015-.447-.015a1.934,1.934,0,0,0-1.364.478,4.258,4.258,0,0,0-1.363,3.245,7.622,7.622,0,0,0,1.583,4.021c.2.258,2.719,4.24,6.637,5.863,3.064,1.27,3.973,1.152,4.67,1A3.758,3.758,0,0,0,33.1,30.828a3.311,3.311,0,0,0,.227-1.85c-.094-.165-.353-.258-.744-.455s-2.3-1.137-2.657-1.262a.744.744,0,0,0-.956.29,16.352,16.352,0,0,1-1.042,1.38.842.842,0,0,1-.94.149,9.827,9.827,0,0,1-3.127-1.928,11.863,11.863,0,0,1-2.163-2.688c-.227-.392-.023-.619.157-.831.2-.243.384-.415.58-.643a2.337,2.337,0,0,0,.431-.611.8.8,0,0,0-.055-.721C22.712,21.461,21.929,19.549,21.607,18.773Z" transform="translate(-5.333 -5.333)"/>
</svg>
